<svg width="1038" height="875" viewBox="0 0 1038 875" fill="none" xmlns="http://www.w3.org/2000/svg">
<path d="M520.561 37.5715L540.061 60.0715C550.728 39.5715 580.362 -0.92853 613.562 1.07147C646.762 3.07147 660.062 41.2381 662.562 60.0715C674.562 52.5715 706.362 37.5715 737.562 37.5715C776.562 37.5715 791.632 114.019 799.062 124.071C807.562 135.571 799.062 189.571 786.562 207.071C776.562 221.071 749.728 221.905 737.562 220.571L753.062 274.571C745.228 287.238 723.362 312.571 698.562 312.571C673.762 312.571 662.562 301.238 660.062 295.571C660.895 309.738 672.862 338.071 714.062 338.071C755.262 338.071 779.562 361.071 786.562 372.571C799.062 410.071 789.062 424.571 799.062 482.571C809.062 540.571 827.562 596.738 835.562 617.571C848.395 621.738 868 655 874.062 711C880.303 768.663 894.728 802.071 905.062 815.571C918.895 815.571 950.161 819.471 964.562 835.071C978.962 850.671 1018.56 856.571 1036.56 857.571V874.071H874.062C849.062 841.404 796.562 769.171 786.562 741.571C774.062 707.071 781.062 665.071 753.062 617.571C725.062 570.071 716.562 502.071 714.062 526.071C712.062 545.271 689.228 581.404 678.062 597.071C678.062 613.571 682.161 650.271 698.562 665.071C719.062 683.571 732.062 731.071 729.562 759.571C727.062 788.071 673.062 798.571 698.562 795.571C724.062 792.571 714.062 815.571 745.062 835.071C776.062 854.571 776.062 835.071 799.062 835.071C817.462 835.071 819.062 861.071 817.562 874.071H330.062C327.895 874.071 323.561 870.771 323.561 857.571C323.561 844.371 327.5 827 337 818.5L397.561 776.071C390.395 767.071 371.262 745.471 352.061 731.071C332.861 716.671 309.061 657.738 299.562 630.071C290.561 645.738 267.061 682.171 245.062 702.571C217.562 728.071 167.061 787.071 182.062 815.571C194.062 838.371 187.062 864.071 182.062 874.071H158.061C153.395 874.071 141.061 872.571 129.062 866.571C117.062 860.571 104.062 869.071 99.0615 874.071H11.5615C8.56147 870.071 2.26136 859.971 1.06136 851.571C-0.138644 843.171 16.5614 848.071 25.0614 851.571C36.728 850.571 62.4614 845.871 72.0614 835.071C84.0614 821.571 108.061 806.571 124.561 776.071C141.061 745.571 158.061 689.071 167.061 665.071C176.061 641.071 215.061 597.071 221.061 585.071C225.861 575.471 233.061 552.071 236.061 541.571C242.061 536.404 257.761 523.971 272.561 515.571C287.361 507.171 312.728 519.071 323.561 526.071C344.061 543.238 392.361 581.471 421.561 597.071C450.761 612.671 476.167 645.833 492.5 666C499.167 661.5 499.5 651 492.5 635.5C483.857 616.362 484.395 601.904 483.061 588.071C475.561 575.071 460.561 544.471 460.561 526.071C460.561 507.671 475.561 489.405 483.061 482.571C479.561 478.071 466.561 471.771 442.561 482.571C418.561 493.371 372.228 494.071 352.061 493.071L323.561 502.071C312.061 506.071 282.061 511.671 254.061 502.071C226.061 492.471 174.333 511.571 157 515.571C157.5 523.071 158.2 540.871 157 552.071C155.8 563.271 150.5 582.738 148 591.071C143.333 595.571 134 601.871 134 591.071V562.571C116 585.071 90.0614 583 72.0614 616.429C67.618 624.681 60.9386 618.929 56.9386 616.429C60.9386 609.929 85.3 561.7 92.5 554.5C99.7 547.3 106.5 520.167 109 507.5L128.5 488C143.167 481 196.161 458.271 228.561 445.071C260.961 431.871 305.395 431.571 323.561 433.071L385.061 410.071C403.228 404.071 443.761 388.171 460.561 372.571C477.361 356.971 498.561 354.071 507.061 354.571L548.061 338.071L536.061 312.571C526 323.5 511.264 337.138 483.061 329.5C459.061 323 464.061 304.238 460.561 295.571C460.561 295.571 435.607 301.461 421.561 295.571C410.076 290.755 404.758 284.735 397.561 274.571C387.672 260.605 385.061 232.571 385.061 232.571L406.061 185.071C406.061 185.071 383.215 149.198 385.061 124.071C386.587 103.308 406.061 75.0715 406.061 75.0715L467.561 60.0715L501.061 75.0715C497.895 70.0715 491.561 55.5715 491.561 37.5715C491.561 19.5715 518.895 15.0715 532.561 15.0715L520.561 37.5715Z" fill="#DDEBED" stroke="#DDEBED"/>
</svg>
